# xmcd
#
# Track frame offsets:
# 150
# 12398
# 24929
# 36998
# 48976
# 60063
# 71840
# 83535
# 95514
# 106619
# 119051
# 130807
# 142741
# 153357
# 166835
# 180121
# 190989
# 203096
# 214072
# 225432
# 238429
# 248437
# 260201
# 272921
# 285043
# 296447
# 307603
# 319573
#
# Disc length: 4405 seconds
#
#
# Revision: 2
# Processed by: cddbd v1.5.1PL0 Copyright (c) Steve Scherf et al.
# Submitted via: FreeRIP 2.942 
#
DISCID=6d11331c
DTITLE=Lester Flatt and Earl Scruggs - The Complete Mercury Sessions
DYEAR=1900
DGENRE=
TTITLE0=Pike County Breakdown
TTITLE1=Doin' My Time
TTITLE2=My Little Girl In Tennessee
TTITLE3=Down The Road
TTITLE4=Old Salty Dog Blues
TTITLE5=Roll In My Sweet Baby's Arms
TTITLE6=My Cabin In Caroline
TTITLE7=Foggy Mountain Breakdown
TTITLE8=I'll Just Pretend
TTITLE9=Pain In My Heart
TTITLE10=Is It Too Late Now
TTITLE11=Why Don't You Tell Me So
TTITLE12=Cora Is Gone
TTITLE13=I'll Never Love Another
TTITLE14=Baby Blue Eyes
TTITLE15=I'll Never Shed Another Tear
TTITLE16=We'll Meet Again Sweetheart
TTITLE17=Farewell Blues
TTITLE18=Will The Roses Bloom (Where She Lies Sleeping)
TTITLE19=Back To The Cross
TTITLE20=Take Me In A Lifeboat
TTITLE21=I'm Going To Make Heaven My Home
TTITLE22=Bouquet In Heaven
TTITLE23=No Mother Or Dad
TTITLE24=I'll Be Going To Heaven Sometime
TTITLE25=So Happy I'll Be
TTITLE26=God Loves His Children
TTITLE27=Preacin', Prayin', Singin'
EXTD=
EXTT0=
EXTT1=
EXTT2=
EXTT3=
EXTT4=
EXTT5=
EXTT6=
EXTT7=
EXTT8=
EXTT9=
EXTT10=
EXTT11=
EXTT12=
EXTT13=
EXTT14=
EXTT15=
EXTT16=
EXTT17=
EXTT18=
EXTT19=
EXTT20=
EXTT21=
EXTT22=
EXTT23=
EXTT24=
EXTT25=
EXTT26=
EXTT27=
PLAYORDER=
